<?xml version="1.0" encoding="UTF-8"?>
<svg width="111px" height="57px" viewBox="0 0 111 57" version="1.1" xmlns="http://www.w3.org/2000/svg" xmlns:xlink="http://www.w3.org/1999/xlink">
    <!-- Generator: sketchtool 53.2 (72643) - https://sketchapp.com -->
    <title>A1D8F738-803A-42FE-B180-2766CC20DF68</title>
    <desc>Created with sketchtool.</desc>
    <defs>
        <filter x="-16.5%" y="-36.4%" width="133.0%" height="172.7%" filterUnits="objectBoundingBox" id="filter-1">
            <feOffset dx="0" dy="1" in="SourceAlpha" result="shadowOffsetOuter1"></feOffset>
            <feGaussianBlur stdDeviation="3.5" in="shadowOffsetOuter1" result="shadowBlurOuter1"></feGaussianBlur>
            <feColorMatrix values="0 0 0 0 0.733418367   0 0 0 0 0.733418367   0 0 0 0 0.733418367  0 0 0 0.5 0" type="matrix" in="shadowBlurOuter1" result="shadowMatrixOuter1"></feColorMatrix>
            <feMerge>
                <feMergeNode in="shadowMatrixOuter1"></feMergeNode>
                <feMergeNode in="SourceGraphic"></feMergeNode>
            </feMerge>
        </filter>
        <polygon id="path-2" points="0 0 96.9367079 0 96.9367079 42.4648165 0 42.4648165"></polygon>
        <polygon id="path-4" points="0 42.4649612 96.9367079 42.4649612 96.9367079 0 0 0"></polygon>
        <polygon id="path-6" points="0 42.4649612 96.9367079 42.4649612 96.9367079 0 0 0"></polygon>
        <polygon id="path-8" points="0 42.4649612 96.9367079 42.4649612 96.9367079 0 0 0"></polygon>
        <polygon id="path-10" points="0 42.4649612 96.9367079 42.4649612 96.9367079 0 0 0"></polygon>
        <polygon id="path-12" points="0 42.4649612 96.9367079 42.4649612 96.9367079 0 0 0"></polygon>
        <polygon id="path-14" points="0 42.4649612 96.9367079 42.4649612 96.9367079 0 0 0"></polygon>
        <polygon id="path-16" points="0 42.4649612 96.9367079 42.4649612 96.9367079 0 0 0"></polygon>
    </defs>
    <g id="Page-1" stroke="none" stroke-width="1" fill="none" fill-rule="evenodd">
        <g id="0.1-Resto-portal-login-" transform="translate(-113.000000, -20.000000)">
            <g id="header">
                <g id="logo/hungerstation" transform="translate(120.000000, 26.000000)">
                    <g id="hungerstation" filter="url(#filter-1)">
                        <g id="Group-3" transform="translate(0.000000, 0.059046)">
                            <g id="Fill-1-Clipped">
                                <mask id="mask-3" fill="white">
                                    <use xlink:href="#path-2"></use>
                                </mask>
                                <g id="path-1"></g>
                                <path d="M96.6760549,21.2491552 C97.0638756,20.3487899 97.0186926,19.3117237 96.5344098,18.4421341 L94.4090161,14.62757 C94.6711492,14.3099729 94.9119458,13.9719781 95.1303303,13.614838 C95.9389625,12.2907714 96.3490161,10.8210576 96.3490161,9.24649195 C96.3490161,6.73702799 95.4137998,4.52834185 93.6435946,2.85876551 C91.9239514,1.23875221 89.706578,0.382224294 87.2308368,0.382224294 L80.648822,0.382224294 L78.5849274,0.382224294 L68.1238091,0.382224294 C66.839859,0.382224294 65.7359237,1.139984 65.2283322,2.23037069 C64.3158867,1.56153816 63.2912009,1.02636477 62.1591159,0.636838712 C60.2868904,-0.00640712903 58.3054726,-0.163505835 56.268114,0.170731503 C54.1615466,0.516957011 52.3341455,1.30978659 50.8016889,2.53132744 C50.3695817,1.28151598 49.1835281,0.382224294 47.7844689,0.382224294 L43.6003802,0.382224294 C42.3336427,0.382224294 41.2388516,1.11851265 40.7226538,2.18563871 L40.4083451,1.73867679 C39.8103876,0.888590283 38.8348294,0.382224294 37.7938275,0.382224294 L34.5263081,0.382224294 L32.0113007,0.382224294 L27.8030068,0.382224294 C26.8977333,0.382224294 26.0806741,0.758151836 25.4993913,1.36185461 C24.9179292,0.758151836 24.1008701,0.382224294 23.1955965,0.382224294 L18.9876612,0.382224294 C18.5139569,0.382224294 16.8712323,0.429103407 16.4375115,0.429103407 L12.27709,0.429103407 C11.3725336,0.429103407 10.5560124,0.804136309 9.97472957,1.4073023 C9.39380536,0.804136309 8.5772841,0.429103407 7.67272772,0.429103407 L3.4888183,0.429103407 C1.72506783,0.429103407 0.294810903,1.85623243 0.294810903,3.61652522 L0.294810903,19.944055 C0.294810903,21.1711426 0.990844175,22.2346901 2.00943382,22.7671796 C1.15113623,24.0536712 0.705043805,25.5711589 0.705043805,27.2468187 C0.705043805,29.4512106 1.44177763,31.0017999 2.26798096,32.0474546 L1.58826377,32.4416328 C0.253931051,33.2163907 -0.334523663,34.8328254 0.191176892,36.2816047 C0.886134378,38.1984594 2.12167412,39.7372395 3.86121941,40.8542864 C5.52277024,41.9230228 7.55994953,42.4648165 9.91520277,42.4648165 C12.5261344,42.4648165 14.7205577,41.7745126 16.4373322,40.4126923 C17.0309865,39.9421119 17.5371436,39.40837 17.9536519,38.8189814 L17.9536519,38.9256224 C17.9536519,40.6859152 19.3837296,42.1128653 21.1476593,42.1128653 C21.1476593,42.1128653 26.8923543,42.1570605 27.3284061,42.1570605 L31.959663,42.1364838 C33.3710937,42.1364838 34.6152397,41.2119633 35.0197351,39.862489 L35.2354301,39.1881097 L35.7231196,39.0721644 L36.067371,39.7597844 C36.5012712,41.0630953 37.7258737,42.1205592 39.1018035,42.1205592 L43.3929329,42.2223692 C43.9087721,42.2223692 45.5393044,42.1724483 45.907761,42.1724483 L50.1911806,42.1128653 C51.4170383,42.1128653 52.4804523,41.4225614 53.0158349,40.411082 C53.5512176,41.4225614 54.6144523,42.1128653 55.8404893,42.1128653 L60.0469902,42.1128653 C61.4702545,42.1128653 62.6749551,41.1831559 63.0876981,39.899706 C65.1888867,41.6020261 67.6854264,42.4648165 70.5274726,42.4648165 C73.1916556,42.4648165 75.5524671,41.7077725 77.5679514,40.2110406 C78.0631713,41.3304136 79.1837813,42.1128653 80.4890678,42.1128653 L84.6957481,42.1128653 C85.9619477,42.1128653 87.0560216,41.3776505 87.5727573,40.311598 L87.8854523,40.7562339 C88.4834098,41.6064993 89.4587887,42.1128653 90.4999699,42.1128653 L93.7429255,42.1128653 C95.506676,42.1128653 96.9367536,40.6859152 96.9367536,38.9256224 L96.9367536,22.5095234 C96.9367536,22.0616668 96.8433396,21.6358184 96.6760549,21.2491552" id="Fill-1" fill="#FFFFFF" fill-rule="nonzero" mask="url(#mask-3)"></path>
                            </g>
                        </g>
                        <path d="M8.92533658,39.1196436 C7.18632919,39.1196436 5.74477651,38.7524835 4.60157503,38.0174477 C3.45747706,37.2825908 2.65852697,36.2900776 2.20454545,35.0390137 L5.79982087,32.9518196 C6.41086708,34.4057878 7.49185229,35.1329508 9.04277651,35.1329508 C10.3270852,35.1329508 10.9696878,34.7686536 10.9696878,34.0402381 C10.9696878,33.5598166 10.5994382,33.1724377 9.85875987,32.8779224 C9.54642346,32.7489153 8.85917577,32.5311601 7.7975547,32.2248355 C6.29324786,31.7873567 5.10271181,31.173634 4.22522937,30.3838462 C3.34774693,29.5945952 2.90918501,28.4959778 2.90918501,27.0888887 C2.90918501,25.5726536 3.45335322,24.3452081 4.54276542,23.4070891 C5.63128113,22.4689701 6.99035691,22 8.61999277,22 C9.99807411,22 11.2203458,22.3206388 12.2857321,22.9613797 C13.3512978,23.6026573 14.1658467,24.5327246 14.7297377,25.7522972 L11.2047469,27.8160518 C10.687832,26.5964791 9.83383751,25.9866928 8.64348076,25.9866928 C8.14180608,25.9866928 7.76223307,26.0890396 7.50350664,26.2933752 C7.2451388,26.4978898 7.11586523,26.7569774 7.11586523,27.0715327 C7.11586523,27.433146 7.30717577,27.7398285 7.69033473,27.9912222 C8.0733144,28.2427948 8.8199096,28.5339105 9.93029961,28.8634957 C10.7129336,29.1449494 11.3514124,29.3743349 11.8460944,29.5520104 C12.3405972,29.7300436 12.8783107,30.0100658 13.4585177,30.3924348 C14.038904,30.7744458 14.4701148,31.2657819 14.7526878,31.8664429 C15.0349022,32.4671039 15.1761887,33.1727956 15.1761887,33.9836969 C15.1761887,35.594227 14.6042294,36.8529848 13.4610279,37.7592547 C12.3171092,38.6664192 10.8052719,39.1196436 8.92533658,39.1196436" id="Fill-4" fill="#592913" fill-rule="nonzero"></path>
                        <polygon id="Fill-6" fill="#592913" fill-rule="nonzero" points="28.8715586 22 28.8715586 26.0570115 24.8059855 26.0570115 24.8059855 38.4160991 20.5994846 38.4160991 20.5994846 26.0570115 16.5340909 26.0570115 16.5340909 22"></polygon>
                        <polygon id="Fill-8" fill="#592913" fill-rule="nonzero" points="54.2238313 22 54.2238313 26.0570115 50.1584376 26.0570115 50.1584376 38.4160991 45.9517574 38.4160991 45.9517574 26.0570115 41.8863636 26.0570115 41.8863636 22"></polygon>
                        <g id="Fill-10-Clipped" transform="translate(0.000000, 0.178928)">
                            <mask id="mask-5" fill="white">
                                <use xlink:href="#path-4"></use>
                            </mask>
                            <g id="path-3"></g>
                            <polygon id="Fill-10" fill="#592913" fill-rule="nonzero" mask="url(#mask-5)" points="55.1136364 38.4160991 59.3203166 38.4160991 59.3203166 22 55.1136364 22"></polygon>
                        </g>
                        <g id="Fill-12-Clipped" transform="translate(0.000000, 0.178928)">
                            <mask id="mask-7" fill="white">
                                <use xlink:href="#path-6"></use>
                            </mask>
                            <g id="path-3"></g>
                            <path d="M67.1793541,33.7609316 C68.0254594,34.5974196 69.0827773,35.015753 70.3518457,35.015753 C71.6209141,35.015753 72.6782321,34.5974196 73.5245167,33.7609316 C74.3702635,32.9248015 74.7932265,31.8576754 74.7932265,30.5597323 C74.7932265,29.2623261 74.3702635,28.1952 73.5245167,27.358712 C72.6782321,26.522403 71.6209141,26.1040695 70.3518457,26.1040695 C69.0827773,26.1040695 68.0254594,26.522403 67.1793541,27.358712 C66.333428,28.1952 65.9102857,29.2623261 65.9102857,30.5597323 C65.9102857,31.8576754 66.333428,32.9248015 67.1793541,33.7609316 M76.4736036,36.6456074 C74.8050602,38.2953227 72.7641156,39.1196436 70.3518457,39.1196436 C67.939038,39.1196436 65.8986313,38.2953227 64.2300879,36.6456074 C62.5615444,34.9962499 61.7272727,32.9675652 61.7272727,30.5597323 C61.7272727,28.1524362 62.5615444,26.1237516 64.2300879,24.4742152 C65.8986313,22.8248577 67.939038,22 70.3518457,22 C72.7641156,22 74.8050602,22.8248577 76.4736036,24.4742152 C78.142147,26.1237516 78.9764188,28.1524362 78.9764188,30.5597323 C78.9764188,32.9675652 78.142147,34.9962499 76.4736036,36.6456074" id="Fill-12" fill="#592913" fill-rule="nonzero" mask="url(#mask-7)"></path>
                        </g>
                        <g id="Fill-13-Clipped" transform="translate(0.000000, 0.178928)">
                            <mask id="mask-9" fill="white">
                                <use xlink:href="#path-8"></use>
                            </mask>
                            <g id="path-3"></g>
                            <polygon id="Fill-13" fill="#592913" fill-rule="nonzero" mask="url(#mask-9)" points="89.5369331 22 93.7197668 22 93.7197668 38.4160991 90.4768111 38.4160991 84.6725893 30.161081 84.6725893 38.4160991 80.4659091 38.4160991 80.4659091 22 83.7323527 22 89.5369331 30.2550181"></polygon>
                        </g>
                        <g id="Fill-14-Clipped" transform="translate(0.000000, 0.178928)">
                            <mask id="mask-11" fill="white">
                                <use xlink:href="#path-10"></use>
                            </mask>
                            <g id="path-3"></g>
                            <path d="M35.7530981,31.0072311 L33.1902183,31.4384473 L34.526344,26.9042351 L35.7530981,31.0072311 Z M31.7502793,22 L26.4545455,38.5846492 L31.054246,38.5846492 L31.6590168,36.5667002 L32.007392,35.4022373 L36.879087,34.5306795 L37.5925122,36.6881922 L38.2234604,38.5846492 L42.5986804,38.5846492 L37.1010575,22 L31.7502793,22 Z" id="Fill-14" fill="#592913" fill-rule="nonzero" mask="url(#mask-11)"></path>
                        </g>
                        <g id="Fill-15-Clipped" transform="translate(0.000000, 0.178928)">
                            <mask id="mask-13" fill="white">
                                <use xlink:href="#path-12"></use>
                            </mask>
                            <g id="path-3"></g>
                            <polygon id="Fill-15" fill="#592913" fill-rule="nonzero" mask="url(#mask-13)" points="12.0952692 9.39106396 7.49072761 10.2146691 7.49072761 8.92388318 7.49072761 3.3 3.30681818 3.3 3.30681818 19.6275298 7.49072761 19.6275298 7.49072761 13.9669664 12.0952692 13.1433612 12.0952692 13.7807024 12.0952692 19.6275298 16.2556906 19.6275298 16.2556906 3.3 12.0952692 3.3"></polygon>
                        </g>
                        <g id="Fill-16-Clipped" transform="translate(0.000000, 0.178928)">
                            <mask id="mask-15" fill="white">
                                <use xlink:href="#path-14"></use>
                            </mask>
                            <g id="path-3"></g>
                            <path d="M29.940433,18.5017153 C28.7256918,19.5496961 27.1623961,20.073597 25.2507251,20.073597 C23.3383369,20.073597 21.7748619,19.5496961 20.5608378,18.5017153 C19.3459173,17.4540924 18.7386364,16.0620333 18.7386364,14.3260747 L18.7386364,3.3 L22.946751,3.3 L22.946751,13.9272444 C22.946751,15.3033789 23.714324,15.9915357 25.2507251,15.9915357 C26.7862297,15.9915357 27.5541613,15.3033789 27.5541613,13.9272444 L27.5541613,3.3 L31.7622759,3.3 L31.7622759,14.3260747 C31.7622759,16.0620333 31.1546364,17.4540924 29.940433,18.5017153" id="Fill-16" fill="#592913" fill-rule="nonzero" mask="url(#mask-15)"></path>
                        </g>
                        <g id="Fill-17-Clipped" transform="translate(0.000000, 0.178928)">
                            <mask id="mask-17" fill="white">
                                <use xlink:href="#path-16"></use>
                            </mask>
                            <g id="path-3"></g>
                            <polygon id="Fill-17" fill="#592913" fill-rule="nonzero" mask="url(#mask-17)" points="43.2443473 3.3 47.4286154 3.3 47.4286154 19.7216458 44.1845839 19.7216458 38.3782106 11.4637649 38.3782106 19.7216458 34.1704545 19.7216458 34.1704545 3.3 37.4377947 3.3 43.2443473 11.557702"></polygon>
                        </g>
                        <g id="Fill-18-Clipped" transform="translate(49.602273, 3.478928)" fill="#592913" fill-rule="nonzero">
                            <path d="M16.6809694,6.03684533 L16.9520673,7.68047713 C17.3441912,10.0569976 16.9156699,12.1048276 15.6665036,13.8236091 C14.4173372,15.5425695 12.601949,16.5977074 10.2206976,16.9888439 C7.68435384,17.4057459 5.46715975,16.9376705 3.5683982,15.5853333 C1.66927805,14.2331751 0.524283598,12.3687463 0.131980455,9.99222574 C-0.259964092,7.61606308 0.221091361,5.47626419 1.57478822,3.57354478 C2.92866437,1.67136215 4.80375864,0.522823892 7.20096752,0.129003559 C8.71639081,-0.120064093 10.1600951,-0.00841307649 11.5326182,0.463419826 C12.9047827,0.935610583 14.0395572,1.67637214 14.9367623,2.68570448 L11.7432928,5.27908563 C11.3346736,4.82299838 10.7915812,4.49251853 10.1143742,4.28639358 C9.43734644,4.08098434 8.70437787,4.04269376 7.91564774,4.17223757 C6.63169765,4.38319358 5.64914681,4.97258212 4.96727805,5.94040319 C4.2848714,6.90858212 4.05106733,8.04065901 4.26479007,9.33699173 C4.4709823,10.5869821 5.05136863,11.577527 6.00576973,12.3080897 C6.96017084,13.0391891 8.171864,13.2836047 9.64102851,13.0422309 C11.5275978,12.7323278 12.655559,11.8181851 13.0241949,10.2990871 L9.08090282,10.9469851 L8.4928067,7.3822043 L16.6809694,6.03684533 Z" id="Fill-18"></path>
                        </g>
                        <g id="Fill-19-Clipped" transform="translate(68.044776, 4.168480)" fill="#592913" fill-rule="nonzero">
                            <polygon id="Fill-19" points="4.2079353 12.4804007 10.5783789 12.4804007 10.5783789 16.4216458 0 16.4216458 0 0 10.460939 0 10.460939 3.91762662 4.2079353 3.91762662 4.2079353 6.19323179 9.87338078 6.19323179 9.87338078 10.0641582 4.2079353 10.0641582"></polygon>
                        </g>
                        <g id="Fill-20-Clipped" transform="translate(80.350746, 4.168480)" fill="#592913" fill-rule="nonzero">
                            <path d="M4.2081146,3.8707475 L4.2081146,7.93849464 L6.46726433,7.6561464 C6.87624214,7.63073863 7.47581331,7.40546839 7.8048244,7.06121109 C8.13383549,6.71731165 8.29825139,6.27160222 8.29825139,5.72408281 C8.29825139,5.17674233 8.13383549,4.7310329 7.8048244,4.38695453 C7.47581331,4.04287616 7.05231238,3.8707475 6.53521811,3.8707475 L4.2081146,3.8707475 Z M8.5804658,16.4216458 L5.71260074,11.119654 L4.2081146,11.3721213 L4.2081146,16.4216458 L0,16.4216458 L0,0 L6.58219409,0 C8.25916451,0 9.66539556,0.535710166 10.801963,1.60695157 C11.9379926,2.67819298 12.506366,4.0348244 12.506366,5.67702477 C12.506366,6.6625597 12.2555287,7.56560887 11.7542126,8.38670906 C11.2521793,9.20780924 10.5704898,9.86107505 9.70896488,10.3456118 L13.0941035,16.4216458 L8.5804658,16.4216458 Z" id="Fill-20"></path>
                        </g>
                    </g>
                </g>
            </g>
        </g>
    </g>
</svg>